<?xml version="1.0" standalone="no"?>
<!DOCTYPE svg PUBLIC "-//W3C//DTD SVG 20010904//EN"
 "http://www.w3.org/TR/2001/REC-SVG-20010904/DTD/svg10.dtd">
<svg version="1.0" xmlns="http://www.w3.org/2000/svg"
 width="778.000000pt" height="278.000000pt" viewBox="0 0 778.000000 278.000000"
 preserveAspectRatio="xMidYMid meet">

<g transform="translate(0.000000,278.000000) scale(0.100000,-0.100000)"
fill="#000000" stroke="none">
<path d="M915 2203 c-35 -9 -63 -34 -79 -68 -13 -27 -16 -75 -16 -278 0 -186
-3 -248 -12 -254 -7 -4 -128 -10 -268 -13 -361 -7 -342 13 -338 -368 3 -289 5
-296 81 -327 55 -22 339 -22 361 1 20 20 20 38 0 58 -13 13 -43 16 -173 16
-109 0 -161 4 -169 12 -18 18 -17 491 1 506 8 7 107 12 264 14 236 3 253 4
280 24 59 43 63 65 63 330 0 173 3 243 12 252 17 17 489 17 506 0 9 -9 12 -80
12 -258 0 -225 2 -248 20 -277 40 -66 47 -68 324 -71 157 -2 255 -7 263 -14
18 -15 19 -493 1 -505 -7 -4 -128 -10 -268 -13 -358 -7 -340 12 -340 -354 0
-232 -1 -246 -19 -256 -29 -15 -483 -14 -499 2 -9 9 -12 80 -12 257 0 226 -2
249 -20 278 -36 59 -112 90 -144 58 -25 -25 -16 -47 29 -71 l40 -20 5 -260 c7
-360 -10 -344 358 -344 265 0 286 4 329 69 22 33 23 41 23 281 0 188 3 250 13
258 8 7 106 12 263 14 277 3 284 5 324 71 18 29 20 52 20 281 0 233 -1 251
-21 285 -36 65 -38 65 -319 71 -140 3 -261 9 -267 13 -10 6 -13 68 -13 254 0
230 -1 248 -21 282 -37 66 -37 66 -319 68 -140 1 -264 -1 -275 -4z"/>
<path d="M3854 1661 c-46 -12 -89 -41 -108 -71 -22 -38 -20 -105 3 -144 23
-37 53 -56 146 -91 83 -31 115 -58 115 -97 0 -41 -15 -65 -52 -84 -44 -23
-132 -15 -161 14 -21 21 -21 23 -4 52 29 48 3 90 -45 74 -50 -15 -38 -101 19
-142 128 -91 343 -15 343 121 0 70 -46 116 -157 158 -142 54 -174 99 -114 160
52 52 191 37 191 -21 0 -10 -4 -22 -10 -25 -5 -3 -10 -17 -10 -30 0 -28 30
-48 57 -38 58 21 36 110 -38 148 -34 18 -132 27 -175 16z"/>
<path d="M5999 1664 c-15 -3 -51 -19 -80 -37 -44 -26 -60 -44 -86 -95 -57
-110 -43 -224 38 -317 90 -103 285 -107 383 -9 81 81 100 213 45 322 -30 61
-53 83 -117 116 -33 17 -136 28 -183 20z m158 -59 c57 -65 71 -266 26 -367
-33 -72 -112 -100 -182 -63 -96 49 -109 368 -18 444 45 36 137 29 174 -14z"/>
<path d="M6595 1661 c-119 -31 -195 -133 -195 -261 0 -75 20 -127 71 -185 90
-103 285 -107 383 -9 122 123 93 355 -55 430 -54 27 -151 39 -204 25z m162
-56 c37 -43 56 -126 51 -229 -7 -152 -50 -216 -145 -216 -68 0 -104 35 -129
127 -31 113 -5 287 49 332 45 36 137 29 174 -14z"/>
<path d="M2460 1651 c0 -5 10 -11 23 -13 l22 -3 3 -232 2 -233 -25 -6 c-14 -3
-22 -10 -19 -15 7 -13 224 -12 224 1 0 6 -10 10 -23 10 -41 0 -47 17 -47 132
l0 108 40 0 c45 0 80 -27 80 -60 0 -11 5 -20 10 -20 6 0 10 39 10 96 0 91 -11
117 -23 55 -5 -25 -13 -32 -48 -41 -66 -18 -69 -13 -69 93 0 116 4 121 95 115
77 -5 112 -30 121 -90 10 -59 24 -34 24 43 l0 69 -200 0 c-117 0 -200 -4 -200
-9z"/>
<path d="M2930 1651 c0 -5 9 -11 20 -14 19 -5 20 -14 20 -236 l0 -231 -25 -6
c-51 -13 -11 -24 85 -24 96 0 136 11 85 24 l-25 6 0 231 c0 222 1 231 20 236
48 13 12 23 -80 23 -55 0 -100 -4 -100 -9z"/>
<path d="M3180 1653 c0 -4 10 -13 23 -18 22 -10 22 -11 22 -235 0 -224 0 -225
-22 -235 -43 -18 -23 -25 76 -25 97 0 137 11 86 24 -25 6 -25 8 -25 111 l0
105 29 0 c73 0 106 -34 121 -125 12 -72 30 -100 74 -115 42 -13 116 2 116 25
0 11 -6 12 -24 5 -33 -12 -44 4 -56 73 -13 81 -38 118 -98 143 l-27 11 37 12
c81 27 119 111 83 181 -29 55 -62 65 -247 68 -93 2 -168 0 -168 -5z m241 -23
c48 -13 69 -47 69 -109 0 -68 -34 -107 -102 -117 l-48 -6 0 114 c0 63 3 118 7
121 9 10 32 9 74 -3z"/>
<path d="M4160 1591 c0 -75 14 -102 24 -47 9 48 40 83 79 90 69 13 67 19 67
-235 l0 -229 -25 -6 c-54 -14 -20 -24 80 -24 100 0 134 10 80 24 l-25 6 0 230
c0 223 1 229 21 235 53 17 116 -26 125 -87 10 -59 24 -34 24 43 l0 69 -225 0
-225 0 0 -69z"/>
<path d="M4830 1652 c0 -5 11 -13 25 -16 l25 -6 0 -230 0 -230 -26 -6 c-17 -4
-22 -10 -16 -16 7 -7 75 -9 179 -6 142 3 174 7 207 23 50 25 76 60 83 113 5
38 2 45 -33 81 -28 28 -51 40 -82 46 l-44 7 49 22 c70 33 96 99 63 161 -26 49
-69 60 -257 63 -108 2 -173 0 -173 -6z m252 -22 c48 -14 68 -43 68 -100 -1
-71 -43 -110 -119 -110 l-41 0 0 98 c0 125 8 135 92 112z m51 -252 c23 -12 57
-67 57 -91 0 -33 -32 -88 -60 -102 -15 -8 -46 -17 -69 -21 -64 -10 -71 1 -71
121 0 56 3 105 8 109 9 9 110 -2 135 -16z"/>
<path d="M5360 1651 c0 -5 11 -12 25 -15 l25 -6 0 -230 0 -230 -25 -6 c-65
-16 -8 -24 175 -24 l200 0 0 69 c0 76 -14 102 -24 46 -11 -58 -43 -85 -108
-92 -31 -3 -68 -3 -82 1 l-26 6 2 233 3 232 23 3 c12 2 22 8 22 13 0 5 -47 9
-105 9 -58 0 -105 -4 -105 -9z"/>
<path d="M6990 1653 c0 -4 10 -13 23 -18 22 -10 22 -11 22 -235 0 -224 0 -225
-22 -235 -45 -19 -21 -25 110 -25 176 0 258 22 319 87 41 43 68 111 68 173 0
117 -39 187 -129 229 -52 24 -68 26 -223 29 -93 2 -168 0 -168 -5z m300 -35
c71 -36 95 -89 95 -208 0 -83 -3 -102 -26 -145 -30 -59 -72 -90 -132 -99 -80
-12 -77 -23 -77 233 0 125 3 231 7 234 14 15 91 6 133 -15z"/>
<path d="M4950 886 c0 -19 -4 -23 -20 -19 -28 7 -50 -14 -50 -47 0 -35 18 -50
58 -47 l32 2 0 68 c0 38 -4 67 -10 67 -5 0 -10 -11 -10 -24z m-5 -66 c0 -16
-6 -26 -18 -28 -19 -4 -32 20 -23 44 9 25 41 13 41 -16z"/>
<path d="M5650 842 l0 -69 32 -1 c41 -1 58 13 58 48 0 33 -22 54 -50 47 -16
-4 -20 0 -20 19 0 13 -4 24 -10 24 -6 0 -10 -29 -10 -68z m65 -22 c0 -29 -32
-41 -41 -16 -9 24 4 48 23 44 12 -2 18 -12 18 -28z"/>
<path d="M6060 900 c0 -5 7 -10 15 -10 11 0 15 -12 15 -50 0 -44 -3 -50 -21
-50 -11 0 -17 -4 -14 -10 3 -5 24 -10 46 -10 21 0 39 5 39 10 0 6 -7 10 -15
10 -12 0 -15 13 -15 60 0 57 -1 60 -25 60 -14 0 -25 -4 -25 -10z"/>
<path d="M7350 885 c0 -22 -3 -24 -29 -19 -23 5 -32 2 -40 -14 -25 -46 0 -84
52 -78 l32 3 3 67 c2 41 -1 66 -8 66 -5 0 -10 -11 -10 -25z m-6 -51 c7 -19
-10 -44 -31 -44 -17 0 -27 24 -19 45 7 20 42 19 50 -1z"/>
<path d="M2466 843 c19 -79 38 -94 50 -40 l7 32 14 -32 c18 -44 29 -41 42 11
13 54 13 56 2 56 -5 0 -12 -15 -16 -32 l-7 -33 -11 33 c-5 17 -14 32 -19 32
-5 0 -14 -15 -20 -32 l-12 -33 -8 33 c-5 17 -13 32 -18 32 -6 0 -8 -12 -4 -27z"/>
<path d="M2912 858 c-22 -22 -15 -67 12 -80 25 -11 56 -6 56 10 0 5 -11 7 -24
5 -13 -3 -27 0 -30 6 -5 7 5 11 28 11 28 0 36 4 36 18 0 24 -19 42 -45 42 -12
0 -26 -5 -33 -12z m58 -18 c0 -5 -12 -10 -26 -10 -14 0 -23 4 -19 10 3 6 15
10 26 10 10 0 19 -4 19 -10z"/>
<path d="M3670 816 c0 -53 16 -54 22 -1 2 18 9 31 20 33 13 2 17 -5 20 -35 3
-42 21 -48 26 -9 5 43 -14 66 -53 63 -35 -2 -35 -2 -35 -51z"/>
<path d="M4082 858 c-22 -22 -15 -67 12 -80 25 -11 56 -6 56 10 0 5 -11 7 -24
5 -13 -3 -27 0 -30 6 -5 7 5 11 28 11 28 0 36 4 36 18 0 24 -19 42 -45 42 -12
0 -26 -5 -33 -12z m58 -18 c0 -5 -12 -10 -26 -10 -14 0 -23 4 -19 10 3 6 15
10 26 10 10 0 19 -4 19 -10z"/>
<path d="M4486 854 c-37 -36 0 -93 51 -78 l28 8 -25 3 c-49 8 -56 17 -16 22
45 7 54 21 31 45 -21 20 -49 21 -69 0z m59 -14 c4 -6 -7 -10 -25 -10 -18 0
-29 4 -25 10 3 6 15 10 25 10 10 0 22 -4 25 -10z"/>
<path d="M6467 852 c-22 -24 -21 -45 1 -65 35 -32 82 -10 82 38 0 42 -54 59
-83 27z m61 -28 c4 -27 -26 -40 -46 -20 -13 13 -13 18 -2 31 18 21 44 15 48
-11z"/>
<path d="M6876 854 c-21 -21 -20 -47 2 -67 23 -21 46 -22 66 -1 31 30 9 84
-34 84 -10 0 -26 -7 -34 -16z m62 -30 c4 -27 -26 -40 -46 -20 -21 20 -8 48 20
44 14 -2 24 -11 26 -24z"/>
</g>
</svg>
